<?xml version="1.0" encoding="utf-8"?>
<!-- Generator: Adobe Illustrator 16.0.0, SVG Export Plug-In . SVG Version: 6.00 Build 0)  -->
<!DOCTYPE svg PUBLIC "-//W3C//DTD SVG 1.1//EN" "http://www.w3.org/Graphics/SVG/1.1/DTD/svg11.dtd">
<svg version="1.1"
	 id="Layer_1" xmlns:dc="http://purl.org/dc/elements/1.1/" xmlns:cc="http://creativecommons.org/ns#" xmlns:rdf="http://www.w3.org/1999/02/22-rdf-syntax-ns#" xmlns:svg="http://www.w3.org/2000/svg" xmlns:sodipodi="http://sodipodi.sourceforge.net/DTD/sodipodi-0.dtd" xmlns:inkscape="http://www.inkscape.org/namespaces/inkscape" inkscape:version="0.47 r22583" sodipodi:docname="Reading_FC.svg"
	 xmlns="http://www.w3.org/2000/svg" xmlns:xlink="http://www.w3.org/1999/xlink" x="0px" y="0px" width="1200px" height="1200px"
	 viewBox="0 0 1200 1200" enable-background="new 0 0 1200 1200" xml:space="preserve">
<defs>
	
	
		<inkscape:perspective  id="perspective3088" inkscape:vp_y="0 : 1000 : 0" sodipodi:type="inkscape:persp3d" inkscape:vp_x="0 : 400.00601 : 1" inkscape:vp_z="800 : 400.00601 : 1" inkscape:persp3d-origin="400 : 266.67067 : 1">
		</inkscape:perspective>
</defs>
<sodipodi:namedview  pagecolor="#ffffff" bordercolor="#666666" borderopacity="1" objecttolerance="10" gridtolerance="10" guidetolerance="10" showgrid="false" inkscape:zoom="0.29499557" inkscape:cx="400" inkscape:cy="400.006" id="namedview3082" inkscape:pageopacity="0" inkscape:pageshadow="2" inkscape:window-width="1280" inkscape:window-height="710" inkscape:window-x="-4" inkscape:window-y="-4" inkscape:window-maximized="1" inkscape:current-layer="Layer_1">
	</sodipodi:namedview>
<g id="g3" transform="matrix(0.25,0,0,0.25,0,-1.1962891e-5)">
	<g id="g5">
		<path id="path7" fill="#DB2F36" d="M2400.078,4700.039C3670.324,4700.039,4700,3670.473,4700,2399.984
			C4700,1129.543,3670.324,99.961,2400.078,99.961C1129.822,99.961,100,1129.547,100,2399.984
			C100,3670.473,1129.822,4700.039,2400.078,4700.039"/>
		<path id="path9" d="M2400.078,4633.961c1234.063,0,2234.742-999.961,2234.742-2233.977
			c0-1233.992-1000.68-2234.52-2234.742-2234.52c-1234.328,0-2234.582,1000.523-2234.582,2234.52
			C165.496,3634,1165.75,4633.961,2400.078,4633.961"/>
		<path id="path11" fill="#FFFFFF" d="M2400.078,4568.953c1198.078,0,2169.063-971.406,2169.063-2168.969
			c0-1198.043-970.984-2169.023-2169.063-2169.023c-1197.932,0-2169.266,970.98-2169.266,2169.023
			C230.813,3597.547,1202.146,4568.953,2400.078,4568.953"/>
		<path id="path13" d="M2400.078,3942.473c851.953,0,1542.719-690.422,1542.719-1542.477
			c0-852.047-690.766-1543.023-1542.719-1543.023c-852.213,0-1542.582,690.965-1542.582,1543.023
			C857.496,3252.051,1547.865,3942.473,2400.078,3942.473"/>
		<path id="path15" fill="#DD9300" d="M2400.078,3886.504c821.047,0,1486.656-665.629,1486.656-1486.508
			c0-820.938-665.609-1486.5-1486.656-1486.5c-821.127,0-1486.6,665.563-1486.6,1486.5
			C913.49,3220.875,1578.951,3886.504,2400.078,3886.504"/>
		<path id="path17" fill="#DD1740" d="M2043.656,2399.984v1367.113c113.957,29.066,233.213,44.922,349.707,44.922V2399.984H2043.656
			z"/>
		<path id="path19" fill="#DD1740" d="M2043.656,2399.984h-356.363v1221.344c110.215,63.902,229.842,113.023,356.363,145.773
			V2399.984L2043.656,2399.984z"/>
		<path id="path21" fill="#DD1740" d="M1330.982,2399.984v929.219c101.873,115.652,222.297,214.457,356.311,292.125V2399.984
			H1330.982z"/>
		<path id="path23" fill="#DD1740" d="M1330.982,2399.984H974.719c1.57,352.332,135.721,679.32,356.264,929.219V2399.984
			L1330.982,2399.984z"/>
		<path id="path25" fill="#DD1740" d="M2747.383,2399.984l2.559-1380.336c-114.059-29.563-233.301-44.914-356.578-44.914v1425.25
			H2747.383L2747.383,2399.984z"/>
		<path id="path27" fill="#DD1740" d="M2747.383,2399.984h352.367V1165.441c-110.578-63.867-263.422-129.422-349.809-145.793
			L2747.383,2399.984z"/>
		<path id="path29" fill="#DD1740" d="M3455.934,2400.535v-943.484c-101.883-115.145-222.137-213.953-356.184-291.609v1235.094
			H3455.934z"/>
		<path id="path31" fill="#DD1740" d="M3455.934,2399.984h356.164c-1.484-365.551-135.867-693.066-356.164-942.934V2399.984
			L3455.934,2399.984z"/>
		<path id="path33" fill="#004494" d="M2394.004,2745.445h1373.238c29.242-113.539,44.875-232.965,44.875-345.461H2394.004V2745.445
			z"/>
		<path id="path35" fill="#FFFFFF" d="M2394.004,2745.445l-0.248,357.668h1227.67c63.879-110.957,113.426-230.898,145.816-357.668
			H2394.004L2394.004,2745.445z"/>
		<path id="path37" fill="#FFFFFF" d="M2394.004,3458.602v354.453c358.137-1.57,685.707-134.137,935.473-354.453H2394.004z"/>
		<path id="path39" fill="#004494" d="M2393.363,2043.418H1019.371c-29.334,114.102-44.742,233.48-44.742,356.566h1418.734V2043.418
			z"/>
		<path id="path41" fill="#FFFFFF" d="M2393.363,2043.418v-356.02H1165.322c-63.678,110.406-113.484,229.742-145.951,356.02
			H2393.363L2393.363,2043.418z"/>
		<path id="path43" fill="#004494" d="M2393.363,1330.832h-936.061c-115.584,101.918-214.322,222.375-291.98,356.566h1228.041
			V1330.832z"/>
		<path id="path45" fill="#FFFFFF" d="M2393.363,1330.832V974.734c-358.59,1.09-686.34,135.789-936.061,356.098H2393.363z"/>
		<path id="path47" fill="#004494" d="M2394.004,3458.602h935.473c115.383-101.949,214.281-222.387,291.949-356.566l-1227.682,1.078
			L2394.004,3458.602z"/>
		<path id="path49" fill="#FFFFFF" d="M2393.363,2960.441c309.816,0,561.105-250.891,561.105-560.457
			c0-310.098-251.289-560.984-561.105-560.984c-309.859,0-561.008,250.887-561.008,560.984
			C1832.355,2709.551,2083.504,2960.441,2393.363,2960.441"/>
		<path id="path51" fill="#EAB300" d="M2799.063,2461.27c-10.984,12.711-121.512,50.715-408.26,50.715"/>
		<path id="path53" d="M2390.803,2493.074v37.777c273.744,0,402.666-34.23,422.568-57.273l-27.629-25.695
			C2774.156,2456.891,2667.508,2493.074,2390.803,2493.074"/>
		<path id="path55" fill="#EAB300" d="M1982.541,2461.27c10.85,12.711,121.334,50.715,408.262,50.715"/>
		<path id="path57" d="M1968.166,2473.531c19.744,23.047,148.58,57.32,422.637,57.32v-37.777
			c-276.832,0-383.408-36.207-394.965-45.148L1968.166,2473.531z"/>
		<path id="path59" fill="#EAB300" d="M2799.063,2338.172c-10.984-12.68-121.512-50.684-408.26-50.684"/>
		<path id="path61" d="M2390.803,2306.367c276.705,0,383.354,36.184,394.939,45.133l27.629-25.66
			c-19.879-23-148.805-57.297-422.559-57.297L2390.803,2306.367L2390.803,2306.367L2390.803,2306.367z"/>
		<path id="path63" fill="#EAB300" d="M1982.541,2338.172c10.85-12.68,121.334-50.684,408.262-50.684"/>
		<path id="path65" d="M1968.166,2325.887l27.672,25.613c11.568-8.949,118.145-45.133,394.965-45.133v-37.824
			C2116.746,2268.543,1987.91,2302.887,1968.166,2325.887"/>
		<path id="path67" fill="#DD9300" d="M1890.957,2399.984c0,275.742,223.654,499.723,499.855,499.723
			c275.891,0,499.711-223.98,499.711-499.723"/>
		<path id="path69" d="M2871.656,2399.984c0,265.094-215.715,480.855-480.854,480.855c-265.174,0-480.945-215.766-480.945-480.855
			h-37.746c0,285.961,232.674,518.609,518.691,518.609c285.963,0,518.564-232.625,518.564-518.609H2871.656z"/>
		<path id="path71" fill="#DD9300" d="M2799.063,2461.27c4.898,4.762,14.711,57.051,11.098,71.313
			c-3.301,14.777-96.152,148.938-108.824,151.59c-12.688,3.188-123.379-40.656-151.359-40.656
			c-28.234,0-72.773,35.895-85.445,36.973c-6.313,0.559-42.992,2.695-73.717,2.695c-31.006,0-67.314-2.137-73.75-2.695
			c-12.758-1.078-57.297-36.973-85.475-36.973c-28.258,0-138.797,43.844-151.465,40.656
			c-12.793-2.652-105.266-136.813-108.725-151.59c-3.537-14.262,6.322-66.551,11.152-71.313"/>
		<path id="path73" d="M2783.207,2471.332c3.527,7.5,8.895,38.945,8.895,52.379c0,1.84-0.113,3.277-0.316,4.355
			c-6.043,15.949-77.199,118.191-96.246,136.16c-7.367-2.156-52.984-15.453-52.984-15.453
			c-45.258-14.555-76.07-24.148-92.602-24.148c-22.531,0-48.336,14.938-69.07,26.934c0,0-19.227,10.285-19.297,10.285
			c-0.133-0.133-70.781,2.383-70.781,2.383s-72.123-2.563-72.178-2.563h0.055c0-0.492-18.148-10.152-18.148-10.152
			c-20.695-11.992-46.48-26.887-68.955-26.887c-16.721,0-47.627,9.594-92.92,24.191c0,0-45.404,13.207-52.727,15.41
			c-19.025-17.879-90.07-120.258-96.471-137.012c-0.146-0.813-0.201-1.91-0.201-3.324c0-12.27,5.625-44.969,9.174-52.625
			l-29.209-23.43c-11.895,11.813-20.295,72.684-16.184,89.305c2.324,9.84,95.672,159.832,123.242,165.539
			c9.422,2.336,22.539-1.234,73.998-17.879c27.57-8.918,69.359-22.398,81.32-22.398c12.342,0,35.006,13.117,50.02,21.832
			l33.916,15.117l75.289,2.672l75.299-2.672l33.719-15.074c15.07-8.688,37.797-21.875,50.148-21.875
			c11.797,0,53.367,13.48,80.953,22.328c51.656,16.711,64.773,20.371,74.977,17.809c26.117-5.453,120.523-156.145,122.68-165.867
			c4.086-16.195-4.313-77.27-16.375-88.973L2783.207,2471.332z"/>
		<path id="path75" fill="#DD9300" d="M2464.531,2680.488c0,0,28.773,140.492,39.777,204.438"/>
		<polygon id="polygon77" points="2446.047,2684.262 2485.664,2888.117 2522.93,2881.738 2483.016,2676.691 		"/>
		<path id="path79" fill="#DD9300" d="M2701.336,2684.172c4.852,17.473-38.027,125.195-35.352,132.113"/>
		<path id="path81" d="M2682.805,2687.609c0.473,10.082-13.992,53.746-21.695,77.242c-14.039,42.18-16.195,49.414-12.691,58.309
			l36.301-6.695l12.258-39.801c20.266-61.273,26.328-83.957,22.555-97.523L2682.805,2687.609z"/>
		<path id="path83" fill="#DD9300" d="M2080.111,2684.172c-4.896,17.473,37.656,124.164,34.725,131.531"/>
		<path id="path85" d="M2083.604,2774.508l12.488,41.059l36.309,7.145c3.605-9.211,1.156-17.387-12.881-59.973
			c-7.424-22.797-21.338-65.27-20.934-75.063l-36.691-8.605C2058.121,2692.527,2064.018,2714.719,2083.604,2774.508"/>
		<path id="path87" fill="#DD9300" d="M2317.051,2680.488c0,0-30.176,140.492-40.957,204.438"/>
		<polygon id="polygon89" points="2257.463,2881.781 2294.658,2888.07 2335.537,2684.418 2298.566,2676.488 		"/>
		<path id="path91" fill="#DD9300" d="M2390.803,2511.984c286.748,0,397.275-38.004,408.26-50.715"/>
		<path id="path93" d="M2390.803,2493.074v37.777c273.744,0,402.666-34.23,422.568-57.273l-27.629-25.695
			C2774.156,2456.891,2667.508,2493.074,2390.803,2493.074"/>
		<path id="path95" fill="#DD9300" d="M1890.957,2399.984c0-275.777,223.654-499.699,499.855-499.699
			c275.891,0,499.711,223.922,499.711,499.699"/>
		<path id="path97" d="M1872.123,2399.984h37.734c0-265.129,215.771-480.832,480.955-480.832
			c265.129,0,480.844,215.703,480.844,480.832h37.711c0-286.008-232.582-518.648-518.555-518.648
			C2104.797,1881.34,1872.123,2113.988,1872.123,2399.984"/>
		<path id="path99" fill="#DD9300" d="M2799.063,2338.172c4.898-4.75,14.711-57.039,11.098-71.305
			c-3.301-14.801-96.152-148.441-108.824-151.621c-12.688-2.641-123.379,40.676-151.359,40.676
			c-28.234,0-72.773-35.938-85.445-36.969c-6.313-0.527-42.992-2.113-73.717-2.113c-31.006,0-67.314,1.574-73.75,2.113
			c-12.758,1.031-57.297,36.969-85.475,36.969c-28.258,0-138.797-43.316-151.465-40.676
			c-12.793,3.18-105.266,136.82-108.725,151.621c-3.537,14.266,6.322,66.555,11.152,71.305"/>
		<path id="path101" d="M2076.27,2096.773c-26.975,6.691-121.074,156.281-123.266,165.773c-4.086,16.316,4.324,77.266,16.219,89.066
			l29.209-23.426c-3.514-7.559-9.029-39.273-9.029-52.66c0-1.773,0.146-3.188,0.338-4.168
			c5.648-14.609,77.232-117.727,96.189-135.988c7.805,2.313,50.885,14.859,50.885,14.859c46.303,14.844,77.871,24.594,94.773,24.594
			c22.473,0,48.268-14.902,68.943-26.918c0,0,19.352-10.313,19.406-10.313c0.145,0.137,70.865-1.891,70.865-1.891
			s72.041,2.059,72.135,2.059c-0.047,0-0.047,0-0.047,0c0,0.508,18.016,10.098,18.016,10.098
			c20.707,11.996,46.539,26.965,69.066,26.965c16.711,0,48.199-9.75,94.313-24.492c0,0,43.348-12.66,51.254-14.973
			c19.047,18.352,90.699,121.379,96.492,136.777c0.137,0.832,0.273,2.063,0.273,3.535c0,12.531-5.57,44.844-9.121,52.398
			l29.02,23.652c12.039-11.691,20.461-72.785,16.262-89.484c-1.953-8.961-95.684-158.598-122.57-165.32
			c-10.422-2.184-24.012,1.563-73.199,17.402c-28.121,9.043-70.707,22.723-82.746,22.723c-12.355,0-35.063-13.176-50.133-21.891
			l-33.738-15.023l-75.273-2.156l-75.289,2.156l-33.916,15.07c-15.018,8.719-37.68,21.844-50.021,21.844
			c-12.219,0-54.916-13.727-83.139-22.75C2099.395,2098.492,2085.951,2094.762,2076.27,2096.773"/>
		<path id="path103" fill="#DD9300" d="M2464.531,2118.953c0,0,28.773-141.563,39.777-205.496"/>
		<polygon id="polygon105" points="2445.977,2115.168 2483.016,2122.75 2522.93,1916.656 2485.664,1910.246 		"/>
		<path id="path107" fill="#DD9300" d="M2701.336,2115.246c4.852-17.43-37.758-127.309-34.859-133.641"/>
		<path id="path109" d="M2661.266,2033.355c7.727,23.898,22.055,68.324,21.563,78.422l36.703,8.566
			c3.75-13.543-2.27-36.496-22.281-98.613l-12.086-40.215l-35.891-7.73C2645.227,1982.691,2646.914,1988.746,2661.266,2033.355"/>
		<path id="path111" fill="#DD9300" d="M2080.111,2115.246c-4.896-17.43,37.656-125.188,34.725-132.047"/>
		<path id="path113" d="M2096.148,1983.242l-12.285,40.465c-19.789,60.68-25.764,83.148-21.969,96.695l36.703-8.613
			c-0.539-9.941,13.588-53.18,21.203-76.324c14.068-43.191,16.305-50.605,12.432-59.711L2096.148,1983.242z"/>
		<path id="path115" fill="#DD9300" d="M2317.051,2118.953c0,0-30.176-141.043-40.957-204.957"/>
		<polygon id="polygon117" points="2257.463,1917.141 2298.566,2122.895 2335.537,2114.965 2294.658,1910.852 		"/>
		<path id="path119" fill="#DD9300" d="M2390.803,2287.488c286.748,0,397.275,38.004,408.26,50.684"/>
		<path id="path121" d="M2390.803,2306.367c276.705,0,383.354,36.184,394.939,45.133l27.629-25.66
			c-19.879-23-148.805-57.297-422.559-57.297L2390.803,2306.367L2390.803,2306.367L2390.803,2306.367z"/>
		<path id="path123" fill="#DD9300" d="M2390.803,2287.488c-286.928,0-397.412,38.004-408.262,50.684c0,0,4.178,27.996,4.324,61.813
			c0,33.297-4.324,61.262-4.324,61.262c10.85,12.734,121.334,50.738,408.262,50.738"/>
		<path id="path125" d="M1968.166,2325.887l-5.031,5.895l4.83,68.258c-0.035,0-4.662,66.035-4.662,66.035l4.863,7.48
			c19.744,23.023,148.58,57.297,422.637,57.297v-37.777c-252.529,0-362.363-29.895-388.688-41.98
			c1.135-16.531,3.549-51.098,3.549-51.098c0-0.059-2.268-32.918-3.549-51.629c26.213-12.105,136.158-41.988,388.688-41.988v-37.836
			C2116.746,2268.543,1987.91,2302.887,1968.166,2325.887"/>
		<path id="path127" fill="#DD9300" d="M2799.063,2338.172c0,0-4.379,27.996-4.379,61.813c-0.246,33.297,4.379,61.262,4.379,61.262"
			/>
		<path id="path129" d="M2775.859,2399.984l4.516,64.34l37.309-6.109l-4.09-58.063c0-0.156,4.133-59.063,4.133-59.063l-37.352-5.816
			L2775.859,2399.984z"/>
		<path id="path131" d="M3297.449,1461.285c-3.57-11.602-9.48-23.234-9.48-23.234s8.492-3.18,16.172-3.18
			c8.359,0,16.285,2.66,16.285,2.66s-3.48,9.48-5.684,20.609c-2.355,13.711-3.055,30.074-3.055,30.074s-2.336-0.52-3.93-0.52h-4.156
			C3303.602,1487.699,3301.559,1474.504,3297.449,1461.285 M3287.969,1491.395c7.75-2.672,13.836-3.18,13.836-3.18
			s-0.246-8.977-5.277-22.148c-4.469-11.117-14.395-24.359-14.395-24.359s-6.109,3.191-12.266,7.426
			c-6.828,5.277-12.668,12.148-12.668,12.148s11.723,1.035,18.508,7.379C3283.75,1476.098,3287.969,1491.395,3287.969,1491.395
			 M3320,1489.809c0,0,0.426,0,1.887,0.531c0.742,0.547,1.73,0.547,1.73,0.547s4.895-8.453,13.453-16.387
			c9.523-9.52,19.813-8.434,19.813-8.434s-3.305-5.313-6.672-9.02c-2.672-2.629-8.469-6.332-8.469-6.332s-5.301,4.75-10.063,12.68
			C3325.211,1473.988,3320,1489.809,3320,1489.809 M3312.273,1514.629c-2.875,0-4.445,1.594-6.559,1.594s-3.707-1.594-6.828-1.043
			c-5.527,0.496-7.949,2.594-7.324,3.684c0.719,1.574,3.234,3.156,6.828,7.402c4.492,4.75,6.109,9.535,7.641,9.535
			c1.637,0,2.695-5.301,6.469-9.535c6.016-6.852,5.93-5.281,7.523-7.941C3321.031,1517.301,3317.418,1515.18,3312.273,1514.629
			 M3321.055,1546.859c-0.469-1.031-8.109-3.703-14.867-3.152c-8.379,0-13.117,2.121-14.375,3.152c-1.414,1.563,0,8.984,0,8.984
			s-3.168-3.199-4.965-7.906c-2.043-4.781-3.277-6.895-3.953-7.422c-2.02-1.57-1.48,8.98,0.09,17.992
			c1.641,8.387,7.188,16.375,7.188,16.375s1.391-5.863,1.324-11.133c0-2.641,1.191-4.215,1.191-4.215s0.672,2.676,1.57,4.773
			c1.461,2.594,3.234,5.797,3.234,5.797s0.922-0.527,3.508-1.078c3.953-1.563,8.398-1.035,11.5,0.551
			c2.199,0.539,3.773-1.586,3.773-1.586s1.145-1.09,2.156-3.188c0.762-2.113,1.57-4.707,1.57-4.707s0.426,2.113,1.57,4.223
			c1.934,4.223,2.406,10.023,2.406,10.023s4.379-5.801,5.953-13.773c1.977-8.402,2.422-22.676,0.625-20.047
			c-1.641,2.641-0.941,4.762-3.32,9.523c-2.023,3.684-6.203,7.379-6.203,7.379S3321.684,1547.398,3321.055,1546.859
			 M3313.039,1488.723c0,0,0.965,0,2.289,0.547c0.922,0,2.742,0.539,2.742,0.539s4.332-14.801,10.063-26.414
			c3.773-7.926,10.375-15.82,10.375-15.82s-3.684-2.676-7.008-4.785c-2.516-1.078-4.223-1.551-4.223-1.551
			s-6.246,6.336-9.387,17.938C3314.477,1471.852,3313.039,1488.723,3313.039,1488.723 M3370.18,1524.68c0,0,15,38.555,12.664,66.035
			c-3.773,45.922-26.188,69.742-26.188,69.742s5.121-14.801,5.57-21.707c1.125-13.715-3.367-27.977-3.367-27.977
			s1.57,23.766-4.313,41.766c-7.008,22.16-24.711,32.738-24.711,32.738l-9.25,5.793c0,0,3.996-11.645,4.379-17.934
			c0.988-15.355-4.875-21.148-4.875-21.148s2.516,10.582,0.965,22.711c-0.469,5.793-3.391,15.305-2.625,13.723
			c-4.426,11.129-10.289,19.023-10.289,19.023s-5.883-8.984-9.254-17.441c-4.09-11.613-4.133-27.434-4.133-27.434
			s-4.582,8.453-2.832,20.605c1.438,7.895,9.883,23.738,9.883,23.738s-27.313-5.805-49.84-34.332
			c-23.762-29.582-25.449-70.809-25.449-70.809s-2.242,13.23-0.359,28.055c2.359,16.363,12.355,33.223,12.355,33.223
			s-22.035-8.391-33.738-34.859c-7.434-15.816-9.68-44.348-9.68-44.348s-1.078,10.563-0.605,20.605
			c0.875,11.117,2.336,17.957,2.336,17.957s-11.543-0.508-17.676-11.625c-4.852-8.457-6.539-25.84-6.539-25.84
			s-1.234,8.434-1.234,11.051c0.09,2.641,0.695,13.238,0.695,13.238s-7.992-1.637-16.934-6.906
			c-6.828-4.211-13.16-10.543-13.16-10.543s10.063-12.148,25.875-21.664c14.281-8.98,28.883-10.02,28.883-10.02l-14.422-2.66
			c0,0,8.18-22.203,21.383-39.105c9.121-12.141,27.023-20.059,27.023-20.059s-4.563,0.551-7.301,1.023
			c-1.887,0.563-6.152,2.672-6.152,2.672s10.195-36.98,32.609-38.566c27.922-1.559,35.266,25.328,35.266,25.328l1.168,3.199
			c-2.582,1.043-5.121,2.109-8.668,4.223c-6.672,3.707-10.289,7.93-12.176,12.152c3.145-1.586,9.84-4.785,16.488-6.336
			c7.59-1.582,14.555-2.109,13.879-0.551c-0.762,1.617-4.043,2.664-7.523,5.852c-2.855,2.617-4.336,6.852-5.773,7.367
			c-1.684,0-5.211-5.301-11.656-5.301c-2.27,0-5.168,1.641-6.895,2.113c-0.719,2.672-0.945,4.781-0.945,4.781s0,6.336,3.234,11.109
			c5.164,7.379,12.332,11.07,12.332,11.07s0,11.098,1.391,20.117c1.641,10.5,11.566,21.629,11.566,21.629s7.145-5.816,15.859-6.348
			c7.32,0,14.645,5.82,14.645,5.82s5.277-4.234,9.121-15.859c5.254-16.363,2.289-25.348,2.289-25.348s8.086-4.254,12.711-11.082
			c3.348-4.773,2.473-11.098,2.473-11.098l-0.156-3.145c0,0,0-0.551-0.563-2.121c-1.574-0.551-3.73-1.645-5.594-1.645
			c-6.129,0-10.848,5.316-11.793,5.316c-1.078,0-2.602-4.75-5.344-7.367c-3.527-3.191-6.695-4.234-7.547-5.863
			c-0.852-1.559,5.977-1.02,13.813,0.551c5.414,1.078,10.852,3.199,14.398,5.313c-1.078-2.109-3.121-4.234-5.617-6.344
			c-5.906-4.773-14.461-9.008-14.461-9.008s17.629-33.266,42.227-17.938c29.242,17.41,18.953,91.891,18.953,91.891
			s-2.02-16.375-6.332-26.934C3376.469,1528.375,3370.18,1524.68,3370.18,1524.68 M3306.75,1584.359
			c-20.598,1.043-19.902,36.98-19.902,36.98s1.797-8.977,5.211-15.813c3.66-6.348,9.027-10.57,9.027-10.57s0.898-0.551,1.797,0
			c0.719,0.477,0.719,1.035,0.719,1.035s-4.781,4.75-6.781,10.566c-2.563,7.379-2.563,16.902-2.563,16.902s6.133,1.57,12.715,1.57
			c7.504,0,14.082-2.098,14.082-2.098s-0.023-8.469-2.539-15.352c-2.199-6.289-6.422-10.504-6.422-10.504s-0.406-0.547,0-1.637
			c0.18-0.484,1.258-0.484,1.258-0.484s5.164,3.145,7.859,7.906c4.563,6.883,6.922,17.406,6.922,17.406
			S3329.477,1583.832,3306.75,1584.359 M2903.551,1722.742c-15.25-32.199-13.676-63.363-13.676-63.363s-24.125,30.625-29.785,67.102
			c-4.941,34.859-9.926,40.676-9.926,40.676s6.914-0.547,12.891-1.625c6.109-1.563,11.23-4.742,11.23-4.742s-3.145,3.18-8.762,6.84
			c-7.094,4.234-16.215,7.984-16.934,8.48c-0.762,0.527-9.277,17.453-14.152,21.145c-7.68,6.336-15.992,11.098-19.066,14.816
			c-3.102,4.223-3.102,5.254-8.512,23.199c-5.012,15.883-7.797,23.789-7.797,23.789s4.648,2.105,5.594,6.352
			c1.168,4.234-1.617,9.488-1.617,9.488s19.789,4.234,36.164,3.695c12.711-0.492,25.469-3.156,25.469-3.156
			s-2.223-12.688-12.129-15.832c-13.34-3.742-27.355-0.551-27.355-0.551s5.141-9.523,17.609-26.383
			c9.813-13.238,21.785-18.496,24.547-19.574c3.664-1.57,23.789-9.512,38.004-17.957c17.316-10.039,32.41-24.84,32.41-24.84
			S2917.094,1750.797,2903.551,1722.742 M3181.508,1790.91c0,0-7.211-11.105-10.043-22.18c-3.254-13.711-3.254-27.98-3.254-27.98
			s-5.305,7.383-13.547,12.152c-9.297,5.797-22.078,8.445-22.078,8.445s3.727,19.531-2.648,45.395
			c-7.055,26.965-22.621,44.898-22.621,44.898s7.93,2.664,9.504,9.008c1.504,6.344-2.406,16.902-2.406,16.902
			s8.738,2.66,31.828,2.66c20.258,0,33.961-5.313,33.961-5.313s-0.945-7.918-9.164-12.668c-7.68-4.254-22.395-4.738-22.395-4.738
			s-0.559-21.676,8.109-42.27C3164.078,1798.277,3181.508,1790.91,3181.508,1790.91 M3325.953,1715.914
			c2.984-11.098,3.523-24.336,3.523-24.336s-3.66,5.859-8.668,12.195c-4.715,5.793-10.895,12.633-10.895,12.633
			s-7.254-1.02-15.656-3.672c-10.242-3.168-15.969-7.398-15.969-7.398s0.336,11.07,3.844,25.883
			c3.457,14.793,11.363,33.828,11.363,33.828s7.59-8.469,13.813-18.484c4.785-8.996,8.02-20.621,8.02-20.621s0.359,0,0.516,3.18
			c0.406,4.75-1.102,10.555-1.102,10.555S3322.605,1728.074,3325.953,1715.914 M2769.461,1697.91
			c15.07-19.52,43.773-34.859,43.773-34.859s13.117-6.852,33.738-11.602c18.305-4.223,44.16-5.793,44.16-5.793l9.883-21.137
			c0,0-38.188,0.516-83.039,21.137c-38.703,16.914-60.938,50.156-60.938,50.156s-15.813,22.223-15.273,56.016
			c0,14.262,12.578,45.426,14.977,53.883c-0.469,3.156,5.484,13.727-8.508,23.27c-6.242,3.695-16.508,3.695-17.227,3.145
			c-3.125-2.109-7.078-14.262-19.406-26.414c-11.234-10.566-26.977-14.801-26.977-14.801s8.398,6.895,13,12.68
			c4.477,5.277,6.828,11.086,6.828,11.086s-17.289-5.809-34.141-6.313c-21.672,0-38.023,11.074-38.023,11.074
			s11.141-1.586,24.305,1.086c11.766,2.598,21.898,8.941,21.898,8.941s-4.602,2.66-7.617,5.805c-3.367,3.742-5.07,9.512-5.07,9.512
			s8.891-4.75,15.383-4.75c11.859-1.031,15.703,1.09,15.703,1.09s24.953,12.625,43.977,7.906
			c31.805-7.906,29.445-29.59,28.523-35.938c-1.305-6.355-10.328-23.762-14.063-45.934c-3.258-20.605-1.656-24.289-1.656-24.289
			S2754.59,1718.035,2769.461,1697.91 M3378.848,1860.113c-11.68-6.852-33.488-8.961-33.488-8.961s-31.535-38.051-52-77.637
			c-19.875-39.105-20.887-72.402-20.887-72.402s-7.637-6.348-14.871-12.691c-6.355-6.336-11.789-12.656-11.789-12.656
			s-18.328-5.82-30.75-17.441c-16.039-14.793-17.117-30.613-17.117-30.613s-5.93,0.469-10.102-1.078
			c-6.742-3.695-10.336-8.965-10.336-8.965s-6.469-0.551-14.242-3.738c-26.594-11.613-23.359-18.496-39.797-20.563
			c-22.531-3.191-39.984-2.652-54.625,0.504c-20.977,3.684-36.07,9.535-61.727,11.109c-20.125,0.547-23.398-5.313-44.313-6.348
			c-11.477-0.527-50.09-3.672-62.328,49.672c-11.188,49.133,20.977,92.449,24.57,97.191c25.156,30.117,29.199,32.23,31.625,50.199
			c2.965,17.922-13.387,20.598-13.387,20.598s8.043,14.262,20.707,25.863c9.883,9.477,23,16.383,30.504,24.301
			c7.008,7.426,7.77,14.262,7.77,14.262s20.844,8.457,38.453,7.898c7.145-0.473,13.996-1.563,19.723-2.598
			c0.09-3.188,0-5.805-1.102-8.992c-0.719-1.035-3.996-8.457-3.996-8.457s8.266,5.313,9.5,15.824
			c6.918-2.113,11.254-4.18,11.254-4.18s-1.641-10.559-14.219-17.465c-10.465-5.258-28.301-5.258-28.301-5.258
			s-14.242-9.008-23.898-24.336c-9.816-15.836-17.297-32.75-15.094-38.531c4.289-10.051,21.609-25.348,24.664-64.438
			c2.199-32.75-12.895-72.918-12.895-72.918s10.332,15.313,15.676,39.102c5.125,22.148,2.203,40.645,4.227,40.645
			c2.289,0,16.977,1.078,27.492,7.445c10.555,6.816,29.602,10.559,29.602,10.559s10.332,1.57,24.438,0.48
			c15.363-0.48,28.391,1.09,46.633-9.996c21.02-13.195,5.789-40.16,5.789-40.16s13.367,10.582,12.828,22.754
			c-0.742,11.039,0.133,21.629,2.199,30.613c4.941,21.105,15.16,34.332,15.16,34.332s-4.535-14.777-4.805-26.93
			c-0.629-10.602,4.109-22.719,4.109-22.719s-2.719,12.117,2.047,26.93c5.23,16.387,19.09,27.504,19.09,27.504
			s-5.57-10.602-6.512-24.301c-1.172-14.816,0-15.883,0-15.883s4.895,15.32,11.68,25.91c6.938,12.148,17.383,22.719,17.383,22.719
			s-3.301-8.457-5.211-15.902c-1.484-5.785-1.484-9.477-1.484-9.477s29.563,21.145,48.336,47.547
			c16.758,24.305,6.605,36.445,6.605,36.445s13.477-7.934,26.012-3.148c10.781,4.164,8.578,17.957,8.578,17.957
			s18.574,7.367,37.129,6.816c5.66,0,11.613-0.484,16.957-1.551v-0.551c0.539-4.188,1.391-9.5-0.629-13.723
			c-0.383-1.02-3.773-8.949-3.773-8.949s10.512,6.84,9.66,20.551c0,0.551-0.137,1.078-0.137,1.078
			c8.266-1.551,14.465-3.672,14.465-3.672S3390.551,1866.984,3378.848,1860.113"/>
		<path id="path133" d="M1454.08,3218.246c13.455,0,24.066-11.094,24.066-24.301c0-13.164-10.611-24.305-24.066-24.305
			c-13.297,0-24.236,11.141-24.236,24.305C1429.844,3207.152,1440.783,3218.246,1454.08,3218.246"/>
		<path id="path135" d="M1565.531,3179.68c13.273,0,24.066-10.602,24.066-24.324c0-13.16-10.793-23.719-24.066-23.719
			c-13.285,0-24.135,10.559-24.135,23.719C1541.396,3169.078,1552.246,3179.68,1565.531,3179.68"/>
		<path id="path137" d="M1598.336,2938.293c11.602,0,20.832-9.5,20.832-21.156c0-11.637-9.23-21.113-20.832-21.113
			c-11.625,0-21.102,9.477-21.102,21.113C1577.234,2928.77,1586.711,2938.293,1598.336,2938.293"/>
		<path id="path139" d="M1505.09,2902.355c11.623,0,21.135-8.984,21.135-20.598c0-11.656-9.512-21.137-21.135-21.137
			c-11.547,0-20.744,9.48-20.744,21.137C1484.336,2893.371,1493.543,2902.355,1505.09,2902.355"/>
		<path id="path141" d="M1454.227,2896.023c11.781,0,21.168-9.547,21.168-21.16c0-11.59-9.387-20.574-21.168-20.574
			c-11.568,0-20.832,8.984-20.832,20.574C1433.395,2886.477,1442.658,2896.023,1454.227,2896.023"/>
		<path id="path143" d="M1405.789,2911.32c11.354,0,20.867-9.504,20.867-21.094c0-11.633-9.514-21.156-20.867-21.156
			c-11.781,0-21.293,9.523-21.293,21.156C1384.496,2901.816,1394.008,2911.32,1405.789,2911.32"/>
		<path id="path145" d="M1364.281,2944.605c11.656,0,21.012-9.48,21.012-21.137c0-11.609-9.355-21.113-21.012-21.113
			c-11.467,0-20.979,9.504-20.979,21.113C1343.303,2935.125,1352.814,2944.605,1364.281,2944.605"/>
		<path id="path147" d="M1354.387,2996.871c11.422,0,20.99-9.477,20.99-21.09c0-11.633-9.568-20.598-20.99-20.598
			c-11.713,0-20.832,8.938-20.832,20.598C1333.555,2987.395,1342.674,2996.871,1354.387,2996.871"/>
		<path id="path149" d="M1549.449,2923.469c11.736,0,21.281-8.938,21.281-21.113c0-11.094-9.545-20.598-21.281-20.598
			c-11.332,0-20.721,9.504-20.721,20.598C1528.729,2914.531,1538.117,2923.469,1549.449,2923.469"/>
		<path id="path151" d="M1366.404,3049.746c11.746,0,21.17-9.57,21.17-21.16s-9.424-20.574-21.17-20.574
			c-11.332,0-20.721,8.984-20.721,20.574C1345.684,3040.199,1355.072,3049.746,1366.404,3049.746"/>
		<path id="path153" d="M1387.18,3098.891c11.479,0,20.99-9.57,20.99-21.16s-9.512-21.156-20.99-21.156
			c-11.5,0-20.988,9.566-20.988,21.156S1375.68,3098.891,1387.18,3098.891"/>
		<path id="path155" d="M1671.996,3114.164c100.109,0,191.424,28.031,262.131,69.18l33.713-69.18c0,0-58.645,23.809-99.188,7.906
			c-40.271-16.352-56.275-68.641-56.275-68.641s-31.547,41.188-79.871,34.316c-48.594-6.824-60.51-75.516-60.51-75.516
			s-12.141,68.691-60.734,75.516c-48.471,6.871-80.018-34.316-80.018-34.316s-15.857,52.289-56.275,68.641
			c-40.396,15.902-99.041-7.906-99.041-7.906l33.781,69.18C1480.551,3142.195,1571.596,3114.164,1671.996,3114.164"/>
		<path id="path157" d="M1671.996,3208.23c90.305,0,161.314,22.168,218.186,62.844l16.51-30.098
			c-58.488-40.16-146.604-67.09-234.695-67.09c-88.359-0.566-176.477,26.93-234.523,67.09l16.127,30.098
			C1510.514,3230.422,1581.816,3208.23,1671.996,3208.23"/>
		<path id="path159" d="M1889.801,3218.246c-13.207,0-24.146-11.094-24.146-24.301c0-13.164,10.939-24.305,24.146-24.305
			c13.441,0,23.998,11.141,23.998,24.305C1913.799,3207.152,1903.242,3218.246,1889.801,3218.246"/>
		<path id="path161" d="M1778.281,3179.68c-13.309,0-24.145-10.602-24.145-24.324c0-13.16,10.848-23.719,24.145-23.719
			c13.5,0,24.348,10.559,24.348,23.719C1802.629,3169.078,1791.781,3179.68,1778.281,3179.68"/>
		<path id="path163" d="M1671.996,3169.078c13.354,0,24.078-11.07,24.078-24.773c0-12.668-10.725-23.809-24.078-23.809
			c-13.32,0-24.303,11.141-24.303,23.809C1647.705,3158.008,1658.676,3169.078,1671.996,3169.078"/>
		<path id="path165" d="M1671.996,2980.027c0,0,9.658,93.48,62.094,100.895c48.75,6.289,81.6-42.855,81.6-42.855
			s21.822,76.637,73.393,81.418c0,0,81.006-115.18,8.268-163.762c-61.051-40.699-162.475,6.336-225.34,6.336
			c-63.082,0-164.527-47.035-225.699-6.336c-72.74,48.582,8.646,163.762,8.646,163.762c51.48-4.781,73.154-81.418,73.154-81.418
			s33.084,49.145,81.566,42.855C1662.395,3073.508,1671.996,2980.027,1671.996,2980.027"/>
		<path id="path167" d="M1745.455,2938.293c-11.479,0-20.867-9.5-20.867-21.156c0-11.637,9.389-21.113,20.867-21.113
			c11.6,0,20.955,9.477,20.955,21.113C1766.41,2928.77,1757.045,2938.293,1745.455,2938.293"/>
		<path id="path169" d="M1838.701,2902.355c-11.479,0-20.9-8.984-20.9-20.598c0-11.656,9.422-21.137,20.9-21.137
			c11.568,0,20.979,9.48,20.979,21.137C1859.691,2893.371,1850.27,2902.355,1838.701,2902.355"/>
		<path id="path171" d="M1889.564,2896.023c-11.545,0-21.08-9.547-21.08-21.16c0-11.59,9.535-20.574,21.08-20.574
			c11.566,0,20.979,8.984,20.979,20.574C1910.543,2886.477,1901.121,2896.023,1889.564,2896.023"/>
		<path id="path173" d="M1938.236,2911.32c-11.746,0-21.102-9.504-21.102-21.094c0-11.633,9.354-21.156,21.102-21.156
			c11.389,0,20.9,9.523,20.9,21.156C1959.137,2901.816,1949.625,2911.32,1938.236,2911.32"/>
		<path id="path175" d="M1979.588,2944.605c-11.748,0-21.26-9.48-21.26-21.137c0-11.609,9.512-21.113,21.26-21.113
			c11.623,0,20.9,9.504,20.9,21.113C2000.488,2935.125,1991.211,2944.605,1979.588,2944.605"/>
		<path id="path177" d="M1989.639,2996.871c-11.623,0-21.135-9.477-21.135-21.09c0-11.633,9.5-20.598,21.135-20.598
			c11.32,0,20.832,8.938,20.832,20.598C2010.471,2987.395,2000.959,2996.871,1989.639,2996.871"/>
		<path id="path179" d="M1794.195,2923.469c-11.838,0-21.047-8.938-21.047-21.113c0-11.094,9.221-20.598,21.047-20.598
			c11.713,0,21.102,9.504,21.102,20.598C1815.297,2914.531,1805.908,2923.469,1794.195,2923.469"/>
		<path id="path181" d="M1977.139,3049.746c-11.646,0-20.775-9.57-20.775-21.16s9.129-20.574,20.775-20.574
			c11.814,0,21.227,8.984,21.227,20.574C1998.365,3040.199,1988.953,3049.746,1977.139,3049.746"/>
		<path id="path183" d="M1956.543,3098.891c-11.545,0-20.777-9.57-20.777-21.16s9.232-21.156,20.777-21.156
			c11.781,0,21.168,9.566,21.168,21.156S1968.324,3098.891,1956.543,3098.891"/>
		<path id="path185" d="M1628.658,2908.711c0-24.367,19.428-43.324,43.338-43.324c23.73,0,43.08,18.957,43.08,43.324
			c0,23.742-19.35,42.789-43.08,42.789C1648.086,2951.5,1628.658,2932.453,1628.658,2908.711 M1671.996,2939.82
			c6.648,0,11.982-5.254,11.982-12.129c0-6.828-5.334-12.129-11.982-12.129c-6.852,0-12.129,5.301-12.129,12.129
			C1659.867,2934.566,1665.145,2939.82,1671.996,2939.82"/>
		<polygon id="polygon187" points="1725.207,2791.398 1686.574,2816.285 1716.053,2771.859 1671.996,2771.859 1627.793,2771.859 
			1657.184,2816.285 1618.516,2791.398 1618.516,2873.875 1657.184,2848.449 1657.184,2882.23 1671.996,2882.23 1686.574,2882.23 
			1686.574,2848.449 1725.207,2873.875 		"/>
		<path id="path189" fill="#004494" d="M3651.656,1250.512l-173.758-159.508l6.402-7.41c19.137,17.969,36.973,14.789,64.082-15.309
			l138.516-150.578c25.359-27.434,23.969-42.258,4.516-59.711l6.738-7.379l85.848,79.23l-6.469,6.875
			c-20.172-18.48-38.141-12.668-61.387,13.234l-147.23,160.016c-17.43,19.031-14.219,30.152,5.906,48.09l47.863,43.879
			c28.84,26.883,42.449,27.434,84.43,3.145l7.168,6.332L3651.656,1250.512L3651.656,1250.512z"/>
		<path id="path191" fill="#004494" d="M4350.688,2608.117c41.035,6.336,52.895-1.031,57.367-27.984l9.363,1.57l-19.785,120.953
			c-13.074,77.109-56.086,105.141-97.102,98.266c-35.441-5.254-54.961-29.559-62.375-76.051l-0.984-0.52
			c-18.328,48.047-60.984,75.539-104.086,68.125c-48.109-7.906-71.426-55.5-61.477-116.211l24.551-147.934l9.48,1.574
			c-4.672,26.953,5.656,38.609,45.121,44.898L4350.688,2608.117L4350.688,2608.117z M4250.242,2668.898
			c-7.57,47.48,14.375,80.23,54.984,87.125c40.34,6.336,73.02-13.184,81.602-65.52l5.48-32.188l-136.496-22.172L4250.242,2668.898z
			 M4149.211,2618.113c-43.258-6.805-55.273-0.473-59.543,24.324l-4.066,26.461c-5.41,32.746,11.344,67.066,58.492,74.996
			c47.145,7.344,84.969-22.707,94.289-79.781l5.145-30.074L4149.211,2618.113z"/>
		<path id="path193" fill="#004494" d="M662.715,2687.875c39.441-4.738,49.84-16.867,46.539-43.348l9.656-1.012l14.982,116.215
			l-9.658,1.078c-3.066-24.844-12.578-35.422-56.018-30.148l-202.295,25.875c-42.51,5.844-48.979,17.434-45.572,43.355l-9.748,1.031
			l-16.969-132.023c-9.211-72.91,27.963-113.047,70.738-118.863c35.602-4.785,67.91,11.094,88.035,56.512
			c31.064-65.52,134.957-99.344,132.309-153.723l9.566-1.035l8.254,65.992c-65.314,69.762-139.336,96.133-131.73,155.832
			l3.514,25.922L662.715,2687.875z M560.584,2701.105l-5.01-39.645c-7.098-54.375-46.863-71.316-84.217-66.059
			c-42.811,5.344-69.336,41.238-62.924,90.898l4.523,33.848L560.584,2701.105z"/>
		<path id="path195" fill="#004494" d="M589.109,2199.25l-0.527,10.039c-28.234,4.773-32.176,9.512-34.5,43.328l-5.369,80.297
			l116.303,7.93c15.768,1.035,22.359-4.234,23.787-22.191l3.873-57.094c3.201-47.508,1.617-59.648-39.496-81.871l0.504-9.5
			l59.59,19.055l-15.588,233.953l-9.748-0.469c1.73-25.395-5.424-37.543-48.504-40.207l-202.98-13.711
			c-40.395-3.133-52.254,5.254-54.229,33.277l-9.66-0.52l15.859-234.523l54.408,3.691l-0.447,6.348
			c-36.039,4.727-39.711,15.813-42.092,51.703l-6.504,93.574l138.979,9.465l6.211-90.324c1.482-22.191-1.73-31.199-29.346-37.531
			l0.662-10.043L589.109,2199.25z"/>
		<path id="path197" fill="#004494" d="M634.178,1923.004l-25.482,101.914l57.949,37.535c28.357,18.496,50.594,29.559,59.42-3.191
			l9.355,2.113l-20.596,81.879l-9.334-2.672c3.189-30.648-11.129-41.699-37.744-59.141l-238.223-152.664l8.02-32.188l294.891-23.273
			c31.568-2.113,42.506-7.906,49.223-35.949l9.422,2.66l-27.906,110.949l-9.514-2.113c5.516-21.648-1.135-34.316-24.537-32.746
			L634.178,1923.004z M468.293,1935.156l-0.484,1.02l123.121,78.176l22.393-88.766L468.293,1935.156z"/>
		<path id="path199" fill="#004494" d="M579.598,1659.379c-35.027-16.891-50.438-13.723-62.33,10.566l-9.006-4.23l66.563-135.227
			c55.1-112.004,156.035-128.367,232.111-90.832c73.514,36.441,118.662,116.188,61.891,230.809l-68.234,138.93l-8.639-4.223
			c11.625-23.738,6.109-38.016-30.117-56.016L579.598,1659.379z M770.717,1705.336c45.529,22.191,59.117,16.371,72.471-10.57
			l14.701-30.086c35.779-72.906,7.244-140.539-72.527-179.652c-69.842-34.309-157.643-33.77-202.979,58.68l-27.438,55.465
			L770.717,1705.336z"/>
		<path id="path201" fill="#004494" d="M966.543,1386.301c32.523,22.66,47.932,21.641,63.496-0.563l7.963,5.816l-67.764,95.613
			l-7.783-5.813c15.564-21.645,12.938-35.906-20.832-59.691l-165.896-117.246c-33.547-23.27-47.551-22.246-63.654,0.504
			l-7.682-5.289l67.395-96.109l8.029,5.785c-15.857,22.191-11.209,37.531,20.631,59.688L966.543,1386.301z"/>
		<path id="path203" fill="#004494" d="M1267.137,1135.355l-6.502,6.895l-363.822-25.91l-0.74,0.527l166.627,156.387
			c23.965,22.719,41.877,21.078,61.912,0l7.154,6.332l-67.607,72.359l-7.076-6.84c18.486-19.574,21.316-35.41-13.193-67.605
			l-138.83-129.984c-26.572-24.828-48.246-32.219-76.939-6.344l-7.076-6.84l57.063-60.77l324.279,24.832l0.842-0.551
			L1064.16,967.391c-30.949-29.055-46.605-27.984-66.191-7.379l-7.209-6.332l67.383-71.863l7.063,6.344
			c-21.641,23.191-19.113,39.578,8.703,65.992L1267.137,1135.355z"/>
		<path id="path205" fill="#004494" d="M1530.336,939.875c-11.895,14.816-58.107,49.676-70.383,58.129
			c-118.357,80.852-206.416,36.469-248.957-25.367c-64.99-95.066-29.457-198.082,36.701-243.512
			c38.072-25.875,61.408-23.211,82.006-37.477c8.176-5.852,10.523-10.566,8.949-19.047l8.502-5.781l54.109,79.219l-7.49,5.254
			c-41.98-46.457-102.4-36.926-139.068-11.598c-55.479,37.496-63.924,114.641-13.6,188.031
			c53.873,79.285,140.561,105.145,204.428,61.27c19.25-13.176,41.846-35.332,25.449-59.141l-19.766-29.063
			c-22.598-32.762-38.096-39.609-60.039-24.785l-10.455,7.363l-5.334-7.926l108.957-74.477l5.355,7.902
			c-26.201,17.988-24.615,35.41-8.611,59.16L1530.336,939.875z"/>
		<path id="path207" fill="#004494" d="M1758.393,766.109c13.588,36.977,26.795,45.426,52.322,35.945l3.246,8.938l-110.094,39.621
			l-3.188-9.008c25.639-8.926,30.734-23.191,16.957-61.238l-68.943-190.715c-13.893-38.543-26.561-45.395-52.088-35.918
			l-3.549-9.465l210.145-75.594l19.789,54.434l-6.828,2.676c-21.227-34.871-30.828-33.84-64.092-21.699l-78.221,27.988
			l46.381,128.375l80.018-28.492c22.742-8.477,27.064-23.27,20.865-49.133l8.615-3.191l31.152,86.637l-8.885,3.145
			c-8.682-21.629-24-30.637-45.438-23.203l-80.656,29.57L1758.393,766.109z"/>
		<path id="path209" fill="#004494" d="M2062.02,401.613c95.84-11.074,180.17,53.883,191.445,147.914
			c11.096,96.133-56.219,180.137-152.902,191.727c-96.438,11.117-180.957-54.918-192.277-151.051
			C1897.043,494.063,1963.066,413.211,2062.02,401.613 M2098.598,728.633c81.297-9.535,114.594-91.969,105.24-170.109
			c-11.871-101.973-72.932-152.688-139.338-144.762c-76.197,8.984-117.391,77.66-106.396,171.188
			C1969.188,679.5,2025.711,737.02,2098.598,728.633"/>
		<path id="path211" fill="#004494" d="M2496.359,371.516c96.672,3.691,170.117,80.777,166.57,175.891
			c-3.527,96.672-82.793,169.02-180.188,165.875c-96.916-3.695-170.342-81.871-167.041-178.543
			C2319.23,438.031,2396.912,368.301,2496.359,371.516 M2482.746,700.613c81.824,3.188,127.355-73.426,129.957-152.176
			c3.953-102.48-48.516-161.629-115.719-164.234c-76.68-2.66-127.666,58.613-131.371,153.172
			C2362.389,631.961,2409.313,697.938,2482.746,700.613"/>
		<path id="path213" fill="#004494" d="M2820.781,699.566c-9.027,38.004-4.313,50.168,22.777,56.5l-2.02,9.477l-112.602-26.41
			l2.047-9.473c22.883,5.262,37.664,2.113,47.977-41.754l56.512-241.949l-45.91-10.52c-42.813-10.027-64.934-2.648-75.559,30.098
			l-9.23-2.109l17.047-72.371l9.188,1.605c3.617,5.27,7.883,8.961,14.98,13.184c7.098,3.695,16.754,6.887,29.918,10.055
			l166.098,38.531c27.875,6.367,41.215,6.367,53.121,0l9.93,2.66l-16.891,72.391l-6.066-1.582
			c0.383-28.031-5.973-49.18-56.285-60.77l-48.293-11.063L2820.781,699.566z"/>
		<path id="path215" fill="#004494" d="M3081.781,563.25c16.484-38.551,11.273-51.738-13.77-62.293l3.75-9.008l112.98,47.539
			c72.457,30.645,89.73,79.227,73.445,117.785c-13.836,32.738-41.844,46.523-89.078,42.789l-0.43,0.551
			c42.156,29.051,58.867,77.152,41.977,117.266c-18.93,44.91-70.883,56.5-127.422,32.75l-138.02-58.613l3.434-9.008
			c25.336,10.57,38.883,3.695,54.563-33.273L3081.781,563.25L3081.781,563.25z M3117.984,675.277
			c43.98,18.473,81.219,4.738,97.414-33.301c15.883-37.512,4-73.965-44.898-94.563l-29.625-12.68l-53.75,127.297L3117.984,675.277
			L3117.984,675.277z M3045.078,761.379c-17.16,40.129-14.016,53.344,9.656,63.398l24.531,10.512
			c30.32,12.688,67.762,4.781,86.473-39.602c18.441-43.848-2.426-87.664-55.434-110.359l-27.984-11.68L3045.078,761.379z"/>
		<path id="path217" fill="#004494" d="M3432.531,895.527l-86.789-59.691l-55.344,41.195c-26.867,20.078-45.418,36.98-17.609,57.063
			l-5.438,7.895l-69.383-47.484l5.594-7.984c27.805,13.23,43.215,3.754,68.594-15.281l226.094-170.109l27.719,19.035
			l-81.109,284.188c-9.027,30.637-7.477,42.777,16.285,59.16l-5.434,7.918l-94.563-64.977l5.301-7.906
			c18.148,12.148,32.816,10.578,39.262-12.141L3432.531,895.527L3432.531,895.527z M3478.891,735.473l-0.945-0.551l-115.785,88.215
			l75.535,51.793L3478.891,735.473L3478.891,735.473z"/>
		<path id="path219" fill="#004494" d="M3651.656,1250.512l-173.758-159.508l6.402-7.41c19.137,17.969,36.973,14.789,64.082-15.309
			l138.516-150.578c25.359-27.434,23.969-42.258,4.516-59.711l6.738-7.379l85.848,79.23l-6.469,6.875
			c-20.172-18.48-38.141-12.668-61.387,13.234l-147.23,160.016c-17.43,19.031-14.219,30.152,5.906,48.09l47.863,43.879
			c28.84,26.883,42.449,27.434,84.43,3.145l7.168,6.332L3651.656,1250.512L3651.656,1250.512z"/>
		<path id="path221" fill="#004494" d="M3814.973,1464.98l-140.563-189.617l7.75-5.816c15.59,21.102,33.465,21.102,65.832-2.66
			l164.234-122.055c30.121-22.168,31.422-36.98,15.859-58.051l7.93-5.816l69.426,94.023l-7.707,5.781
			c-16.418-22.156-34.902-19.551-62.891,1.047l-174.836,129.969c-20.594,15.297-19.227,26.414-3.074,48.043l38.746,52.324
			c23.133,31.188,36.656,34.859,82.496,18.496l5.504,7.906L3814.973,1464.98z"/>
		<path id="path223" fill="#004494" d="M4226.098,1785.105c51.684-36.973,64.98-77.648,45.191-129.973
			c-27.605-73.965-101.414-91.371-179.621-61.77c-91.504,34.344-134.023,104.543-108.035,173.254
			c17.875,48.059,53.703,74.984,106.914,81.34l-4.539,10.578c-55.883-2.121-104.398-39.102-126.344-97.734
			c-27.602-72.918-6.355-169.027,95.281-207.078c96.695-35.941,193.141,3.707,227.234,94.582
			c14.469,38.543,12.445,71.844,19.273,89.773c3.078,8.48,8.266,12.152,15.898,13.188l3.016,8.469l-90.969,34.375L4226.098,1785.105
			L4226.098,1785.105z"/>
		<path id="path225" fill="#004494" d="M4082.078,2147.477l-51.281-229.773l9.703-2.672c5.414,25.895,21.742,33.309,61.074,24.828
			l199.766-44.359c36.68-8.445,43.754-21.148,38.027-47.012l9.523-2.098l25.359,114.102l-9.594,2.098
			c-5.816-26.965-23.738-31.668-57.766-24.289l-212.551,47.547c-24.953,5.258-28.391,15.848-22.594,42.777l14.082,62.848
			c8.625,38.598,19.18,47.008,68.078,50.75l1.73,9.488L4082.078,2147.477L4082.078,2147.477z"/>
		<path id="path227" fill="#004494" d="M4138.184,2413.719c-37.891-29.547-56.488-62.855-58.512-106.16
			c-4.086-78.75,50.336-113.609,106.602-116.203l160.234-7.414c42.813-2.121,51.125-13.746,49.617-39.609h9.816l5.57,117.234
			l-9.5,0.551c-1.551-26.953-11.547-36.98-53.121-34.859l-164.727,7.906c-49.91,2.113-84.32,31.703-81.672,86.633
			c1.641,37.531,22.195,69.719,58.422,90.891l195.949-9.535c37.262-2.113,49.934-11.051,49.887-37.465h9.859l5.188,114.629
			l-9.5,0.449c-1.414-27.402-14.219-36.41-53.297-34.297l-202.824,9.5c-42.586,2.109-51.145,14.305-49.816,39.621h-9.727
			l-3.844-80.301L4138.184,2413.719z"/>
		<path id="path229" fill="#004494" d="M1567.418,4112.551l-8.49-4.676c7.322-27.488,4.346-32.742-24.92-49.145l-70.898-38.633
			l-55.805,102.512c-7.727,13.746-5.84,21.676,10.221,30.637l49.998,27.492c41.945,22.73,53.412,26.371,90.797-1.594l8.412,4.738
			l-41.979,46l-205.99-112.527l4.492-8.492c22.428,12.152,36.027,10.605,56.826-27.469l97.66-178.004
			c19.262-35.891,16.902-50.176-7.568-63.406l4.559-8.469l206.023,112.531l-26.021,48.109l-5.691-3.145
			c10.824-34.902,2.178-42.855-29.189-60.238l-82.24-44.922l-66.811,122.547l79.859,43.348
			c19.271,10.512,28.771,11.098,46.102-11.141l8.613,4.762L1567.418,4112.551z"/>
		<path id="path231" fill="#004494" d="M1873.133,4093.055l-9.32-3.211c11.197-47.484-14.971-76.57-46-87.125
			c-32.389-11.117-61.498-1.574-71.65,26.953c-19.605,57.051,53.549,99.273,82.23,158.438c14.016,29.066,12.521,50.223,5.549,70.82
			c-16.789,48.582-69.584,73.965-117.875,57.051c-32.682-11.613-54.715-36.992-64.846-40.676
			c-5.244-2.113-10.455,0.563-15.789,7.367l-9.064-2.605l28.887-83.512l8.973,3.191c-19.137,57.074,21.135,91.934,47.842,101.41
			c37.082,12.73,69.258,0,80.646-33.27c18.652-53.367-55.568-106.195-77.748-152.645c-12.559-25.379-12.559-49.684-4.146-73.984
			c16.6-46.988,61.465-67.609,111.229-50.133c33.025,11.051,44.326,28.523,56.141,32.746c4.885,1.574,6.346,1.012,11.229-5.84
			l8.471,3.191L1873.133,4093.055z"/>
		<path id="path233" fill="#004494" d="M2061.176,4338.125c-6.939,38.563-1.66,50.203,25.527,55.457l-1.605,9.52l-113.439-20.57
			l1.73-9.551c22.955,4.246,37.768-0.516,45.82-44.336l44.539-244.621l-46.27-8.445c-43.314-7.902-64.957,1.078-74.053,33.824
			l-9.502-1.547l13.744-72.977l9.029,1.594c3.988,4.762,8.547,7.973,15.734,11.633c7.154,3.148,16.902,6.359,30.648,8.965
			l167.592,30.145c27.729,5.258,41.576,4.719,53.119-2.109l9.895,2.109l-13.342,72.863l-6.199-1.012
			c-1.078-28.027-8.242-49.125-59.318-58.133l-48.447-9.004L2061.176,4338.125L2061.176,4338.125z"/>
		<path id="path235" fill="#004494" d="M2257.789,4417.367c0,15.344-11.961,28.012-26.898,28.012
			c-14.633,0-27.334-12.668-27.334-28.012c0-14.777,12.701-26.414,27.334-26.414
			C2245.828,4390.953,2257.789,4402.59,2257.789,4417.367"/>
		<path id="path237" fill="#004494" d="M2586.359,4380.422c2.359,30.098,8.715,35.352,36.5,33.242l0.719,8.441l-105.031,7.949
			l-0.359-8.445c26.484-1.617,32.883-7.387,30.414-38.004l-17.52-224.02c-0.855-10.039-2.582-11.594-5.57-11.594
			c-3.953,1.031-20.707,12.133-43.551,15.297l-0.875-9.5c34.723-21.652,63.359-43.82,72.816-61.273l9.66-0.563L2586.359,4380.422z"
			/>
		<path id="path239" fill="#004494" d="M2778.332,4047.617c47.574-9.5,89.262,14.801,97.324,57.023
			c4.875,24.844-1.328,54.445-40.16,87.195c49.188,21.09,75.043,49.121,82.07,85.551c9.75,49.125-24.551,94.051-77.379,104.605
			c-53.68,10.063-98.016-14.266-106.891-60.238c-6.715-35.895,9.234-66.035,52.719-101.93
			c-43.844-12.711-71.293-40.699-78.258-76.637C2698.844,4096.734,2727.457,4057.656,2778.332,4047.617 M2824.063,4187.078
			c26.102-20.625,28.883-45.461,24.012-70.281c-7.793-40.141-36.68-62.844-71.223-56.516c-29.648,6.355-47.91,31.672-42.227,59.188
			C2739.789,4147.406,2765.035,4166.453,2824.063,4187.078 M2840.887,4365.637c33.129-6.918,53.164-34.855,46.809-66.594
			c-6.313-32.234-38.883-56.516-89.773-71.855c-28.953,21.699-40.883,49.148-34.684,81.871
			C2771.078,4347.672,2804.25,4372.469,2840.887,4365.637"/>
		<path id="path241" fill="#004494" d="M2914.109,4010.625l9.094-3.688c3.012,3.148,4.988,5.816,8.199,5.816
			c3.191,0.516,7.277,0,12.488-2.133l167.898-64.465l4.086,11.098l9.297,337.543l-38.137,14.801l11.23-323.816l-133.242,50.719
			c-19.359,7.434-23.203,16.395-28.523,55.008l-8.961,3.66L2914.109,4010.625z"/>
		<path id="path243" fill="#004494" d="M3375.59,4127.914c14.262,26.414,21.879,29.063,46.406,15.297l3.973,7.906l-92.043,49.117
			l-3.996-6.824c23.559-12.668,26.953-20.617,12.398-47.527l-106.109-196.531c-4.535-8.984-6.895-9.48-9.43-7.906
			c-3.371,1.57-14.152,19-33.469,30.637l-4.582-8.445c22.324-33.309,39.777-65.004,41.215-85.082l8.559-4.719L3375.59,4127.914z"/>
	</g>
</g>
</svg>
